HIERARCHY
ROOT Hips
{
	OFFSET 0.000000 0.000000 0.000000
	CHANNELS 6 Xposition Yposition Zposition Zrotation Yrotation Xrotation 
	JOINT LeftUpLeg_virtual
	{
		OFFSET 0.000000 0.000000 0.000000
		CHANNELS 3 Zrotation Yrotation Xrotation
		JOINT LeftUpLeg
		{
			OFFSET 10.205400 -3.823500 0.155100
			CHANNELS 3 Zrotation Yrotation Xrotation
			JOINT LeftLeg
			{
				OFFSET 0.708757 -12.982077 0.567790
				CHANNELS 3 Zrotation Yrotation Xrotation
				JOINT LeftFoot
				{
					OFFSET -0.708756 -10.717838 -2.184338
					CHANNELS 3 Zrotation Yrotation Xrotation
					JOINT LeftToeBase
					{
						OFFSET 0.108149 -7.191104 7.560241
						CHANNELS 3 Zrotation Yrotation Xrotation
						End Site
						{
							OFFSET 0.000000 0.000000 0.000000
						}
					}
				}
			}
		}
	}
	JOINT RightUpLeg_virtual
	{
		OFFSET 0.000000 0.000000 0.000000
		CHANNELS 3 Zrotation Yrotation Xrotation
		JOINT RightUpLeg
		{
			OFFSET -10.205400 -3.823500 0.005500
			CHANNELS 3 Zrotation Yrotation Xrotation
			JOINT RightLeg
			{
				OFFSET -0.708756 -12.982134 0.610632
				CHANNELS 3 Zrotation Yrotation Xrotation
				JOINT RightFoot
				{
					OFFSET 0.708754 -10.717769 -1.945823
					CHANNELS 3 Zrotation Yrotation Xrotation
					JOINT RightToeBase
					{
						OFFSET -0.108140 -7.191069 7.372968
						CHANNELS 3 Zrotation Yrotation Xrotation
						End Site
						{
							OFFSET 0.000000 0.000000 0.000000
						}
					}
				}
			}
		}
	}
	JOINT Spine_virtual
	{
		OFFSET 0.000000 0.000000 0.000000
		CHANNELS 3 Zrotation Yrotation Xrotation
		JOINT Spine
		{
			OFFSET 0.000000 6.876099 0.125700
			CHANNELS 3 Zrotation Yrotation Xrotation
			JOINT Spine1
			{
				OFFSET 0.000000 8.022060 0.146608
				CHANNELS 3 Zrotation Yrotation Xrotation
				JOINT Spine2
				{
					OFFSET 0.000000 9.168068 0.167552
					CHANNELS 3 Zrotation Yrotation Xrotation
					JOINT Neck_virtual
					{
						OFFSET 0.000000 0.000000 0.000000
						CHANNELS 3 Zrotation Yrotation Xrotation
						JOINT Neck
						{
							OFFSET 0.000000 10.314075 0.188496
							CHANNELS 3 Zrotation Yrotation Xrotation
							JOINT Head
							{
								OFFSET 0.000000 7.643700 -2.377400
								CHANNELS 3 Zrotation Yrotation Xrotation
								End Site
								{
									OFFSET 0.000000 0.000000 0.000000
								}
							}
						}
					}
					JOINT LeftShoulder_virtual
					{
						OFFSET 0.000000 0.000000 0.000000
						CHANNELS 3 Zrotation Yrotation Xrotation
						JOINT LeftShoulder
						{
							OFFSET 4.392200 8.824978 0.174984
							CHANNELS 3 Zrotation Yrotation Xrotation
							JOINT LeftArm
							{
								OFFSET 8.771219 -2.981674 -0.026999
								CHANNELS 3 Zrotation Yrotation Xrotation
								JOINT LeftForeArm
								{
									OFFSET 8.512804 0.000000 -0.000000
									CHANNELS 3 Zrotation Yrotation Xrotation
									JOINT LeftHand
									{
										OFFSET 18.484802 0.000000 -0.000000
										CHANNELS 3 Zrotation Yrotation Xrotation
										End Site
										{
											OFFSET 0.000000 0.000000 0.000000
										}
									}
								}
							}
						}
					}
					JOINT RightShoulder_virtual
					{
						OFFSET 0.000000 0.000000 0.000000
						CHANNELS 3 Zrotation Yrotation Xrotation
						JOINT RightShoulder
						{
							OFFSET -4.392200 8.824993 0.141379
							CHANNELS 3 Zrotation Yrotation Xrotation
							JOINT RightArm
							{
								OFFSET -8.771282 -2.981682 -0.094208
								CHANNELS 3 Zrotation Yrotation Xrotation
								JOINT RightForeArm
								{
									OFFSET -8.494598 0.000000 0.000000
									CHANNELS 3 Zrotation Yrotation Xrotation
									JOINT RightHand
									{
										OFFSET -18.483803 0.000000 0.000001
										CHANNELS 3 Zrotation Yrotation Xrotation
										End Site
										{
											OFFSET 0.000000 0.000000 0.000000
										}
									}
								}
							}
						}
					}
				}
			}
		}
	}
}
MOTION
Frames: 11
Frame Time: 0.033333
-8.115302 37.060356 93.492996 179.944175 3.258948 -179.952221 -3.004171 -2.723582 11.347027 -4.102898 -1.568687 -17.880038 12.668349 13.308098 16.195656 -8.536068 1.076151 12.271179 0.000000 0.000000 0.000000 3.573085 -0.487030 8.273609 0.431095 -5.354619 -4.858970 -6.983641 0.341449 8.054713 4.820348 9.688525 13.822220 0.000000 0.000000 0.000000 2.778130 0.870691 2.362517 -3.219141 3.850211 -8.554774 0.812955 -5.056313 3.343968 0.026366 -0.009188 -0.019975 0.367954 -3.248654 6.287218 3.501151 2.185795 0.600622 0.000000 0.000000 0.000000 1.682718 -2.209949 3.260151 4.361506 1.777354 -6.572569 -12.693267 22.009016 -35.875552 -8.963741 -22.487220 0.785937 0.000000 0.000000 0.000000 -1.813346 -1.412643 2.809443 2.923027 -4.493707 -11.362999 31.230521 -46.615375 -38.649476 -0.627448 38.685396 -8.792337 0.000000 0.000000 0.000000 
-8.129646 37.061535 93.500427 179.847214 3.383946 -179.902729 -3.137071 -2.805870 11.339489 -4.270548 -1.418367 -17.865301 12.603810 13.696620 16.333663 -8.395695 1.133301 11.899428 0.000000 0.000000 0.000000 3.572704 -0.442723 8.317256 0.339456 -5.736616 -4.757887 -6.859505 0.225093 7.999408 4.962387 9.709409 13.399159 0.000000 0.000000 0.000000 2.688359 0.861449 2.288304 -3.233340 3.842723 -8.499583 0.779728 -5.029575 3.360746 0.028262 -0.006439 0.014275 0.371261 -3.261680 6.215660 3.507939 2.082112 0.674623 0.000000 0.000000 0.000000 1.714762 -2.154195 3.198256 4.398752 1.689467 -6.609440 -12.929074 22.170087 -35.977373 -8.935920 -22.634740 0.780932 0.000000 0.000000 0.000000 -1.820911 -1.411800 2.822083 2.905893 -4.451775 -11.376426 31.120657 -46.485701 -38.628483 -0.571599 38.635044 -8.670992 0.000000 0.000000 0.000000 
-8.137469 37.064083 93.520523 179.836709 3.528116 -179.978531 -3.157771 -2.709296 11.374403 -4.286735 -1.388583 -17.774900 12.605690 13.558991 16.240213 -8.278294 1.189070 11.905943 0.000000 0.000000 0.000000 3.556263 -0.364319 8.284085 0.312540 -5.634635 -4.758311 -6.885842 0.246416 8.003610 5.012884 9.700080 13.396469 0.000000 0.000000 0.000000 2.658551 0.872933 2.349870 -3.199447 3.863334 -8.398598 0.796032 -4.975457 3.370808 0.007245 0.017011 0.030158 0.403788 -3.313544 6.189433 3.516646 1.987933 0.814852 0.000000 0.000000 0.000000 1.771704 -2.125154 3.189077 4.352741 1.538777 -6.665518 -13.370688 22.369230 -35.549717 -8.733890 -22.989619 0.850846 0.000000 0.000000 0.000000 -1.770522 -1.362138 2.776264 3.009270 -4.411185 -11.189250 30.901705 -46.380830 -38.376951 -0.636357 38.628528 -8.580396 0.000000 0.000000 0.000000 
-8.137797 37.064224 93.546867 179.843812 3.499817 -179.976728 -3.209959 -2.691171 11.309456 -4.256431 -1.463308 -17.788543 12.574050 13.397300 16.180375 -8.169611 1.208099 11.882901 0.000000 0.000000 0.000000 3.548229 -0.366705 8.250029 0.346282 -5.597172 -4.800766 -6.916624 0.347536 8.111388 4.962205 9.560255 13.403622 0.000000 0.000000 0.000000 2.623732 0.888923 2.318398 -3.175033 3.859030 -8.334013 0.828046 -4.934559 3.390330 -0.012279 0.019738 0.020711 0.454619 -3.301332 6.161934 3.479616 1.822894 1.015744 0.000000 0.000000 0.000000 1.822570 -2.095431 3.183411 4.263486 1.302962 -6.682969 -14.099138 22.751428 -34.990410 -8.520247 -23.549263 0.979034 0.000000 0.000000 0.000000 -1.698272 -1.329908 2.734049 3.155671 -4.399934 -10.990936 30.622497 -46.289783 -37.927084 -0.767211 38.801649 -8.479879 0.000000 0.000000 0.000000 
-8.124609 37.062870 93.568344 179.947030 3.410891 -179.962876 -3.116051 -2.668542 11.203898 -4.224765 -1.680521 -17.787524 12.647795 13.272179 16.230761 -8.069074 1.236229 11.877680 0.000000 0.000000 0.000000 3.624525 -0.355672 8.219380 0.464349 -5.524198 -4.881630 -6.979880 0.319357 8.295384 4.898642 9.408577 13.410328 0.000000 0.000000 0.000000 2.649744 0.911557 2.289373 -3.106380 3.825452 -8.274153 0.923945 -4.912751 3.412876 0.025773 -0.005301 -0.014969 0.473128 -3.088392 6.193243 3.416632 1.632450 1.335462 0.000000 0.000000 0.000000 1.799569 -2.065027 3.230489 4.115794 0.991566 -6.490286 -15.120920 23.344384 -34.301968 -8.235440 -24.274031 1.100964 0.000000 0.000000 0.000000 -1.713366 -1.293574 2.810534 3.285193 -4.443841 -10.754701 30.596276 -46.112905 -37.602469 -0.945124 39.192018 -8.351783 0.000000 0.000000 0.000000 
-8.095990 37.066666 93.588463 179.831818 3.341245 -179.962685 -3.262107 -2.681328 11.161992 -4.218954 -1.665235 -17.846449 12.644654 12.881278 16.209292 -7.882549 1.336447 11.929377 0.000000 0.000000 0.000000 3.558626 -0.350039 8.210134 0.530841 -5.850527 -4.993916 -6.975998 0.511583 8.511467 4.960125 9.297945 13.413398 0.000000 0.000000 0.000000 2.538789 0.903802 2.259574 -3.142772 3.774924 -8.215420 0.988276 -4.855573 3.489944 0.007044 -0.005145 0.027086 0.607657 -3.117151 6.138469 3.345166 1.469248 1.733760 0.000000 0.000000 0.000000 1.955773 -1.972748 3.200779 3.870853 0.722746 -6.539656 -16.398120 23.960457 -33.285858 -7.876104 -25.090546 1.260849 0.000000 0.000000 0.000000 -1.562038 -1.237803 2.833891 3.536368 -4.496368 -10.528368 30.556385 -45.947652 -36.994528 -1.150864 39.781156 -8.168219 0.000000 0.000000 0.000000 
-8.049600 37.072186 93.609917 179.940255 3.308268 -179.851626 -3.135474 -2.697692 11.119795 -4.076412 -2.008025 -17.977020 12.663569 12.798467 16.239668 -7.779061 1.414662 12.049309 0.000000 0.000000 0.000000 3.664170 -0.327359 8.152917 0.661985 -5.513158 -5.196264 -7.015161 0.289008 8.693531 4.835158 9.120597 13.433519 0.000000 0.000000 0.000000 2.559031 0.958414 2.194182 -3.106455 3.768404 -8.202119 1.118416 -4.771817 3.547539 0.020232 0.013083 -0.012479 0.692960 -3.039278 6.256681 3.239658 1.271312 2.215580 0.000000 0.000000 0.000000 2.006011 -1.928412 3.359840 3.464547 0.272088 -6.480847 -17.994828 24.781072 -31.994242 -7.554364 -26.108089 1.585521 0.000000 0.000000 0.000000 -1.484508 -1.152617 2.865228 3.917449 -4.591105 -10.009073 30.898546 -45.803423 -36.400452 -1.495217 40.489607 -8.130502 0.000000 0.000000 0.000000 
-7.978790 37.081524 93.641243 179.910871 3.196123 -179.886501 -3.204882 -2.746890 11.156702 -3.831091 -2.258103 -18.069141 12.651239 12.507429 16.350657 -7.666395 1.455160 12.104713 0.000000 0.000000 0.000000 3.687496 -0.467187 8.187752 0.816081 -5.724223 -5.405924 -7.020796 0.404545 8.881566 4.830906 9.027109 13.513326 0.000000 0.000000 0.000000 2.497715 0.920288 2.232530 -3.129557 3.716034 -8.087566 1.213152 -4.701693 3.714453 0.017281 -0.014191 0.005952 0.806936 -2.976297 6.300823 3.097752 1.065606 2.810307 0.000000 0.000000 0.000000 2.130175 -1.850342 3.393920 2.962746 -0.204062 -6.343727 -19.884827 25.653118 -30.206932 -7.161917 -27.426210 1.807248 0.000000 0.000000 0.000000 -1.345474 -1.139701 2.961165 4.398919 -4.626523 -9.798614 31.336136 -45.649200 -35.455464 -1.761895 41.431145 -7.990938 0.000000 0.000000 0.000000 
-7.893654 37.092838 93.697144 179.825576 3.066246 -179.959925 -3.359421 -2.830266 11.190615 -3.473640 -2.537742 -18.205348 12.609310 12.451111 16.422066 -7.794783 1.449643 12.172986 0.000000 0.000000 0.000000 3.617675 -0.655548 8.257727 0.958585 -5.052910 -5.605876 -7.016423 -0.046854 9.053004 4.651448 8.869052 13.712143 0.000000 0.000000 0.000000 2.414896 0.889811 2.326298 -3.174161 3.692037 -7.993189 1.295388 -4.577773 3.905608 0.003765 -0.009513 0.023420 0.974927 -2.926924 6.395779 3.003384 0.919729 3.449696 0.000000 0.000000 0.000000 2.249214 -1.786681 3.502424 2.274315 -0.804670 -6.255184 -22.083468 26.526443 -27.944578 -6.840111 -29.022539 2.109745 0.000000 0.000000 0.000000 -1.189396 -1.079525 3.021881 5.006330 -4.718711 -9.270737 32.213651 -45.569373 -34.444852 -2.128758 42.554947 -7.956081 0.000000 0.000000 0.000000 
-7.788305 37.102463 93.771935 179.913740 3.058571 -179.839304 -3.261505 -2.797251 11.170360 -3.119139 -2.897191 -18.402956 12.610824 12.663136 16.356404 -7.811179 1.437954 12.474002 0.000000 0.000000 0.000000 3.740089 -0.583432 8.224762 1.218052 -5.004983 -5.905452 -7.009253 -0.142293 9.186361 4.428008 8.816224 13.776695 0.000000 0.000000 0.000000 2.436203 0.887149 2.286445 -3.141867 3.654767 -7.908272 1.401912 -4.468924 4.117741 0.021875 -0.014551 0.033075 1.049713 -2.680848 6.588091 2.842090 0.708475 4.178732 0.000000 0.000000 0.000000 2.316906 -1.611099 3.650567 1.386758 -1.381507 -6.035177 -24.555416 27.341263 -25.359328 -6.550243 -30.971534 2.521786 0.000000 0.000000 0.000000 -1.116531 -0.917456 3.259342 5.688126 -4.741373 -8.803069 33.463965 -45.577193 -33.164537 -2.490670 43.822596 -7.923880 0.000000 0.000000 0.000000 
-7.668066 37.105316 93.865082 179.822803 2.929655 -179.950131 -3.354215 -2.734138 11.145726 -2.740653 -3.069968 -18.586613 12.460738 12.378430 16.365967 -7.823214 1.349281 12.657193 0.000000 0.000000 0.000000 3.638474 -0.633184 8.312041 1.502262 -4.526510 -6.062538 -6.987781 -0.569736 9.316022 4.110094 8.749238 13.940974 0.000000 0.000000 0.000000 2.351778 0.921419 2.431415 -3.156712 3.599496 -7.693281 1.461179 -4.342326 4.403081 -0.011580 -0.016793 0.019629 1.213222 -2.730626 6.767290 2.728331 0.588326 4.960113 0.000000 0.000000 0.000000 2.467863 -1.557577 3.788988 0.329001 -2.063301 -5.855516 -27.403906 28.086527 -22.438348 -6.319065 -33.210962 2.843501 0.000000 0.000000 0.000000 -0.933992 -0.816236 3.317537 6.571475 -4.785148 -8.277289 34.631682 -45.827677 -31.115869 -3.001689 45.190946 -8.109542 0.000000 0.000000 0.000000 
